<?xml version="1.0" standalone="no"?>
<!DOCTYPE svg PUBLIC "-//W3C//DTD SVG 20010904//EN"
 "http://www.w3.org/TR/2001/REC-SVG-20010904/DTD/svg10.dtd">
<svg version="1.0" xmlns="http://www.w3.org/2000/svg"
 width="1301.000000pt" height="1301.000000pt" viewBox="0 0 1301.000000 1301.000000"
 preserveAspectRatio="xMidYMid meet">
<metadata>
Created by potrace 1.16, written by Peter Selinger 2001-2019
</metadata>
<g transform="translate(0.000000,1301.000000) scale(0.100000,-0.100000)"
fill="#ababab" stroke="none">
<path class="amx-instagram-logo--svg" d="M3425 12989 c-476 -44 -976 -194 -1404 -420 -1127 -597 -1888 -1737
-2001 -2999 -14 -159 -14 -5981 0 -6140 66 -732 356 -1446 823 -2025 571 -709
1375 -1187 2267 -1348 300 -55 114 -52 3400 -52 3286 0 3100 -3 3400 51 1178
214 2191 981 2720 2059 155 317 260 636 323 985 55 299 52 114 52 3400 0 3285
3 3100 -51 3400 -284 1568 -1530 2794 -3104 3054 -85 14 -207 30 -270 36 -140
12 -6019 12 -6155 -1z m6141 -1012 c229 -31 445 -84 633 -153 893 -333 1549
-1092 1745 -2023 63 -298 59 -97 63 -3136 4 -2805 1 -3080 -32 -3298 -122
-792 -553 -1468 -1217 -1907 -361 -239 -794 -393 -1243 -442 -176 -19 -5834
-19 -6010 0 -1223 134 -2197 1019 -2435 2212 -57 289 -55 145 -55 3270 0 3125
-2 2981 55 3270 177 890 769 1627 1600 1992 309 137 625 210 970 228 85 4
1426 6 2980 5 2565 -1 2836 -3 2946 -18z"/>
<path d="M10358 10981 c-214 -69 -348 -254 -348 -481 0 -287 213 -500 500
-500 287 0 500 213 500 500 0 227 -136 415 -349 480 -83 26 -223 26 -303 1z"/>
<path d="M6133 9984 c-802 -87 -1530 -438 -2103 -1013 -582 -585 -934 -1335
-1011 -2153 -18 -193 -7 -636 20 -813 82 -535 256 -990 547 -1431 488 -741
1244 -1274 2099 -1479 290 -70 507 -95 825 -95 464 0 861 74 1273 236 1061
416 1853 1320 2131 2429 111 442 128 994 46 1455 -126 702 -462 1341 -975
1855 -573 575 -1304 924 -2110 1010 -173 18 -572 18 -742 -1z m792 -1023 c258
-46 469 -115 695 -227 248 -123 461 -277 656 -472 366 -368 601 -823 696
-1349 20 -114 23 -159 23 -413 0 -318 -12 -417 -80 -665 -206 -750 -764 -1369
-1495 -1659 -567 -224 -1253 -224 -1820 0 -910 361 -1532 1221 -1578 2179 -27
564 110 1075 408 1522 252 379 577 664 985 863 236 116 501 198 740 229 44 6
94 13 110 15 17 2 145 3 285 1 208 -2 277 -6 375 -24z"/>
</g>
</svg>
